# xmcd
#
# Track frame offsets:
#	150
#	21422
#	35162
#	54104
#	67652
#	78672
#	93153
#	108438
#	127869
#	141220
#	155070
#	169266
#	183186
#	205160
#	217023
#	231481
#	253392
#	266434
#	280462
#	293722
# Disc length: 4097 seconds
# Revision: 1
# Processed by: cddbd v1.5.1PL0 Copyright (c) Steve Scherf et al.
#
# Submitted via: libkcddb 0.10
#
DISCID=2b0fff14
DTITLE=Coleman Hawkins - Just Sax
DYEAR=1900
DGENRE=Unknown
TTITLE0=On the sunny site of the street
TTITLE1=Stuffy
TTITLE2=Blues changes
TTITLE3=Embraceable you
TTITLE4=The night ramble
TTITLE5=I'm in the mood for love
TTITLE6=Get happy
TTITLE7=Sweet Lorraine
TTITLE8=A Shanty in Old Shanty Town
TTITLE9=Bean Soup
TTITLE10=I only have ears for you
TTITLE11=Lover come back to me
TTITLE12=Lousie
TTITLE13=Before long
TTITLE14=My man
TTITLE15=Don't blame me
TTITLE16=Too much of a good thing
TTITLE17=Bean stalking
TTITLE18=April in Paris
TTITLE19=Bean at the met
EXTD=
EXTT0=
EXTT1=
EXTT2=
EXTT3=
EXTT4=
EXTT5=
EXTT6=
EXTT7=
EXTT8=
EXTT9=
EXTT10=
EXTT11=
EXTT12=
EXTT13=
EXTT14=
EXTT15=
EXTT16=
EXTT17=
EXTT18=
EXTT19=
PLAYORDER=
